<?xml version="1.0" encoding="UTF-8"?>
<!DOCTYPE svg PUBLIC "-//W3C//DTD SVG 1.1//EN" "http://www.w3.org/Graphics/SVG/1.1/DTD/svg11.dtd">
<svg width="433pt" height="83pt" viewBox="0 0 433 83" version="1.1" xmlns="http://www.w3.org/2000/svg">
<g id="#000000ff">
<path fill="#000000" opacity="1.00" d=" M 66.82 0.37 C 68.63 0.36 70.44 0.36 72.26 0.35 C 72.23 11.79 72.29 23.22 72.22 34.65 C 74.56 30.95 77.61 27.48 81.79 25.85 C 88.32 23.32 96.70 24.01 101.73 29.28 C 105.59 33.19 107.40 38.72 107.48 44.14 C 107.56 55.56 107.46 66.97 107.52 78.39 C 105.75 78.38 103.98 78.38 102.21 78.36 C 102.30 67.90 102.22 57.45 102.27 46.99 C 102.24 41.64 101.29 35.65 97.05 31.93 C 93.68 28.82 88.69 28.61 84.40 29.46 C 76.92 31.48 71.68 39.31 72.23 46.98 C 72.28 57.45 72.23 67.92 72.26 78.38 C 70.44 78.38 68.63 78.38 66.82 78.37 C 66.82 52.37 66.83 26.37 66.82 0.37 Z"/>
<path fill="#000000" opacity="1.00" d=" M 367.34 1.36 C 382.22 0.92 397.12 1.29 412.01 1.17 C 417.32 1.03 422.99 2.32 426.83 6.22 C 430.85 9.99 432.37 15.65 432.27 21.02 C 432.20 35.67 432.37 50.34 432.18 64.99 C 432.17 73.82 424.87 82.02 415.92 82.35 C 400.61 82.58 385.28 82.38 369.97 82.45 C 365.05 82.62 360.04 80.93 356.50 77.46 C 352.67 73.74 351.10 68.29 351.19 63.07 C 351.16 49.04 351.18 35.01 351.18 20.99 C 351.16 16.65 351.96 12.10 354.60 8.55 C 357.51 4.40 362.32 1.79 367.34 1.36 M 371.27 4.39 C 366.79 4.44 361.95 5.38 358.77 8.79 C 355.20 12.15 354.38 17.27 354.39 21.94 C 354.37 35.33 354.36 48.72 354.40 62.11 C 354.35 66.98 355.48 72.28 359.39 75.55 C 363.29 79.20 368.94 79.42 373.98 79.39 C 387.31 79.29 400.65 79.55 413.98 79.26 C 419.92 79.22 425.93 75.67 427.89 69.89 C 429.61 64.43 429.02 58.61 428.95 52.98 C 429.22 41.97 428.90 30.96 428.88 19.94 C 428.99 15.07 426.96 10.01 422.83 7.23 C 419.14 4.53 414.37 4.38 409.99 4.35 C 397.08 4.38 384.18 4.30 371.27 4.39 Z"/>
<path fill="#000000" opacity="1.00" d=" M 19.78 5.00 C 29.85 3.74 40.85 2.03 50.29 6.81 C 56.95 10.08 60.35 17.81 59.89 25.00 C 60.17 32.71 55.90 40.41 49.05 44.04 C 41.76 48.00 33.10 48.01 25.08 46.87 C 25.13 57.36 24.89 67.85 25.11 78.35 C 23.32 78.37 21.53 78.38 19.74 78.39 C 19.78 53.93 19.70 29.46 19.78 5.00 M 25.14 8.92 C 25.27 20.06 24.37 31.26 25.33 42.36 C 33.59 43.27 43.22 43.92 49.82 37.87 C 57.04 30.71 56.60 15.93 47.07 10.90 C 40.36 7.28 32.43 8.07 25.14 8.92 Z"/>
<path fill="#000000" opacity="1.00" d=" M 295.52 4.25 C 306.07 4.29 316.62 4.22 327.18 4.30 C 327.02 5.96 326.87 7.62 326.71 9.29 C 317.75 9.04 308.78 9.23 299.82 9.18 C 298.64 16.88 297.41 24.57 296.23 32.26 C 304.92 31.08 314.83 32.28 321.34 38.71 C 331.49 48.87 328.68 68.12 316.57 75.56 C 307.47 81.53 295.25 80.32 286.12 75.05 C 286.85 73.55 287.57 72.05 288.30 70.55 C 292.83 72.97 297.78 74.98 303.01 74.81 C 311.03 75.09 318.90 69.62 321.11 61.85 C 323.29 54.08 321.48 44.34 314.32 39.73 C 307.26 35.42 298.52 36.34 290.69 37.39 C 292.38 26.36 293.89 15.30 295.52 4.25 Z"/>
<path fill="#000000" opacity="1.00" d=" M 3.30 5.33 C 6.32 4.02 10.08 6.54 9.66 9.88 C 9.63 13.57 4.64 15.25 2.06 12.93 C -0.26 10.91 0.37 6.45 3.30 5.33 Z"/>
<path fill="#000000" opacity="1.00" d=" M 387.29 16.24 C 393.27 13.64 400.12 14.98 405.70 17.97 C 405.00 19.45 404.31 20.93 403.63 22.41 C 399.57 19.81 394.52 18.40 389.79 19.88 C 385.38 21.26 382.68 26.54 384.22 30.92 C 385.17 34.34 388.65 36.00 391.57 37.45 C 396.59 39.74 402.21 41.82 405.39 46.61 C 409.09 52.89 407.55 62.20 401.06 66.05 C 393.82 70.45 384.23 69.50 377.07 65.39 C 377.73 63.93 378.40 62.47 379.07 61.00 C 384.46 64.05 391.21 65.95 397.11 63.14 C 402.30 60.66 403.79 53.24 400.27 48.78 C 396.72 44.47 390.97 43.32 386.36 40.57 C 382.53 38.34 378.95 34.71 378.73 30.05 C 378.11 24.19 381.82 18.34 387.29 16.24 Z"/>
<path fill="#000000" opacity="1.00" d=" M 135.40 24.67 C 142.53 23.46 150.41 25.25 155.59 30.49 C 161.49 36.29 163.71 44.91 163.38 52.99 C 163.25 60.16 160.91 67.56 155.73 72.71 C 148.75 79.93 136.88 81.68 128.05 76.94 C 121.42 73.37 117.28 66.31 116.00 59.04 C 114.85 51.65 115.33 43.70 118.89 36.99 C 122.11 30.62 128.34 25.86 135.40 24.67 M 134.36 29.56 C 128.43 31.34 124.06 36.57 122.23 42.35 C 119.95 49.56 120.12 57.71 123.45 64.58 C 125.69 69.22 129.76 73.15 134.82 74.50 C 139.85 75.65 145.46 74.86 149.55 71.56 C 155.80 66.82 158.29 58.61 158.16 51.03 C 157.73 44.07 155.38 36.64 149.69 32.21 C 145.47 28.76 139.50 28.07 134.36 29.56 Z"/>
<path fill="#000000" opacity="1.00" d=" M 171.11 25.48 C 172.82 25.48 174.54 25.48 176.26 25.49 C 176.26 28.67 176.24 31.84 176.21 35.02 C 178.46 31.42 181.34 28.05 185.30 26.29 C 192.50 22.91 202.28 24.01 207.37 30.52 C 211.21 35.09 212.17 41.23 212.18 47.01 C 212.18 57.47 212.17 67.92 212.18 78.37 C 210.39 78.38 208.60 78.38 206.82 78.37 C 206.81 67.89 206.85 57.40 206.81 46.92 C 206.75 41.68 205.86 35.85 201.81 32.12 C 198.65 29.13 194.01 28.65 189.88 29.26 C 181.79 30.64 176.33 39.04 176.72 46.97 C 176.79 57.43 176.70 67.90 176.78 78.36 C 175.02 78.38 173.25 78.38 171.48 78.39 C 171.35 60.75 171.88 43.10 171.11 25.48 Z"/>
<path fill="#000000" opacity="1.00" d=" M 227.26 31.31 C 234.62 22.80 249.87 21.62 257.36 30.55 C 262.40 36.23 263.28 44.18 263.23 51.46 C 250.53 51.50 237.83 51.25 225.13 51.41 C 225.28 59.21 227.45 68.06 234.59 72.38 C 242.09 76.55 251.36 75.14 259.00 72.07 C 259.45 73.46 259.91 74.84 260.38 76.23 C 252.88 79.50 244.26 80.59 236.33 78.37 C 228.29 75.96 222.42 68.65 220.79 60.55 C 218.95 50.54 220.24 39.15 227.26 31.31 M 232.47 32.50 C 228.20 36.18 226.37 41.78 225.51 47.18 C 236.25 47.19 246.99 47.19 257.73 47.18 C 257.42 42.41 256.66 37.34 253.44 33.58 C 248.45 27.35 238.18 27.16 232.47 32.50 Z"/>
<path fill="#000000" opacity="1.00" d=" M 2.49 25.47 C 4.25 25.48 6.02 25.49 7.78 25.50 C 7.74 43.12 7.72 60.74 7.79 78.36 C 6.02 78.37 4.25 78.38 2.48 78.38 C 2.52 60.75 2.50 43.11 2.49 25.47 Z"/>
</g>
</svg>