<?xml version="1.0" encoding="UTF-8" standalone="no"?>
<!-- Created with Inkscape (http://www.inkscape.org/) by Marsupilami -->
<svg xmlns:dc="http://purl.org/dc/elements/1.1/" xmlns:cc="http://creativecommons.org/ns#" xmlns:rdf="http://www.w3.org/1999/02/22-rdf-syntax-ns#" xmlns:svg="http://www.w3.org/2000/svg" xmlns="http://www.w3.org/2000/svg" xmlns:sodipodi="http://sodipodi.sourceforge.net/DTD/sodipodi-0.dtd" xmlns:inkscape="http://www.inkscape.org/namespaces/inkscape" version="1.0" width="1610.1962" height="1396.4283" id="svg2997" sodipodi:version="0.32" inkscape:version="0.46" sodipodi:docname="Mozilla_Foundation_logo.svg" inkscape:output_extension="org.inkscape.output.svg.inkscape">
  <metadata id="metadata46">
    <rdf:RDF>
      <cc:Work rdf:about="">
        <dc:format>image/svg+xml</dc:format>
        <dc:type rdf:resource="http://purl.org/dc/dcmitype/StillImage"/>
      </cc:Work>
    </rdf:RDF>
  </metadata>
  <sodipodi:namedview inkscape:window-height="703" inkscape:window-width="640" inkscape:pageshadow="2" inkscape:pageopacity="0.0" guidetolerance="10.0" gridtolerance="10.0" objecttolerance="10.0" borderopacity="1.0" bordercolor="#666666" pagecolor="#ffffff" id="base" showgrid="false" inkscape:zoom="0.16840707" inkscape:cx="1112" inkscape:cy="99.741063" inkscape:window-x="82" inkscape:window-y="26" inkscape:current-layer="svg2997"/>
  <defs id="defs3000">
    <inkscape:perspective sodipodi:type="inkscape:persp3d" inkscape:vp_x="0 : 1045.5 : 1" inkscape:vp_y="0 : 1000 : 0" inkscape:vp_z="2224 : 1045.5 : 1" inkscape:persp3d-origin="1112 : 697 : 1" id="perspective48"/>
  </defs>
  <g id="Layer_x0020_1" style="fill-rule:nonzero;stroke:#000000;stroke-width:0.9984901;stroke-miterlimit:4" transform="matrix(32.256751,1.728591,-1.6956211,33.08331,-3361.0095,-553.40348)">
    <g id="g7" style="stroke:none">
      <path id="path9" style="fill:#000000;fill-opacity:1" d="M 117.12842,16.370117 C 114.1665,18.509277 109.57568,22.854492 107.40381,25.360352 C 107.97412,25.407715 108.55029,24.945313 109.18506,24.82959 L 113.54053,23.416992 C 111.78662,25.049805 108.06787,27.960938 107.06201,30.15332 C 108.41553,29.59668 111.22412,27.820313 112.65576,27.611816 C 111.4585,28.802246 108.94873,31.072754 108.19873,32.473633 C 108.30029,32.51416 108.23779,32.636719 108.25732,32.71875 C 109.30615,32.057129 111.84912,30.337402 113.03467,30.167969 C 111.87647,31.521973 109.75147,34.123535 109.34522,35.813477 C 110.37256,35.049805 112.9751,33.473633 114.12451,32.976562 C 113.89209,33.646973 113.32568,34.165527 112.9751,34.842285 C 112.4917,35.77832 111.28857,36.87793 111.29834,37.959473 C 112.18604,37.03125 113.30322,36.193848 114.43311,35.513184 C 113.97217,36.631348 113.06592,37.583496 112.87451,38.895508 C 113.59717,38.10791 115.02197,37.643066 115.98584,37.246094 L 115.87354,37.367187 C 115.79248,37.442383 114.72803,38.293945 114.021,39.21875 C 114.68896,39.141602 114.18506,39.085937 115.05225,39.231445 L 115.03824,39.274471 C 115.24236,44.273236 125.07934,45.590433 131.03578,45.025296 C 132.16957,42.583402 131.28857,38.779785 134.45264,36.959472 C 136.58154,35.709472 136.79639,35.07666 139.34717,35.407714 C 140.7251,35.585937 143.76416,36.436035 145.17725,36.043945 C 146.47217,35.221679 147.10303,34.856445 148.23682,33.890625 C 149.29053,32.137344 138.75121,27.185006 147.41162,33.870117 C 149.42139,34.181152 149.93115,34.092773 150.4751,33.199219 C 150.70202,32.489074 151.23291,30.606445 151.74365,29.371094 L 151.74951,28.717285 C 151.10693,27.112305 151.09521,24.30957 150.79248,23.921875 C 148.82373,21.532715 142.15967,21.490723 138.98193,18.37793 C 139.40869,16.728027 138.26318,15.446777 137.11475,14.489258 C 135.40771,13.395508 133.16553,14.056152 131.43994,14.637695 C 129.42334,14.334961 127.54053,13.73291 125.56885,13.28125 C 121.2251,13.067871 117.12842,16.370117 117.12842,16.370117 L 117.12842,16.370117 z"/>
      <path id="path11" style="fill:#ff1a00" d="M 129.86475,17.09082 L 128.46045,17.698242 C 128.271,17.373535 128.68311,17.03418 128.8374,16.713867 C 128.94775,16.479492 129.29248,16.333008 129.36084,16.053711 C 127.49365,15.859375 125.69678,15.06543 123.73779,15.473633 C 121.64307,15.90918 120.45459,16.760254 119.2876,17.762695 C 118.69092,18.122559 118.41943,18.603027 117.84326,19.026367 C 117.14795,19.70459 116.89795,20.99707 116.729,21.25 C 117.76318,20.748535 118.83057,20.759277 119.53662,20.48584 C 116.92139,22.273437 116.61865,25.51416 117.50732,28.157715 L 117.46631,28.21875 C 116.53076,27.737305 116.21631,26.774902 115.92041,25.93457 C 115.771,26.504883 115.78271,27.21875 115.69385,27.851562 C 115.39014,27.602539 115.21045,27.23291 115.03076,26.904785 C 114.87646,29.759277 116.41748,31.99707 118.2749,34.146973 C 119.51904,35.588379 117.29639,36.70166 117.93115,38.55957 L 120.65967,38.26709 C 121.00537,38.120117 120.89795,38.171875 120.89795,38.171875 C 120.28271,39.54541 116.70654,40.748535 116.04932,41.549805 C 116.25244,41.696777 119.39307,40.571777 120.55029,40.317383 L 117.21554,42.389304 C 117.56222,42.474264 117.26904,43.615723 118.01318,43.470215 C 122.83462,44.596641 128.2844,46.224828 129.01318,44.190429 C 129.64209,42.888183 130.55811,40.690429 130.33545,39.484375 L 131.01514,38.354004 C 130.04443,38.643554 129.07373,39.083496 128.35498,39.912597 C 128.10303,39.459472 128.43115,38.882812 128.58545,38.433593 C 129.04834,37.514648 130.04248,36.989258 130.82275,36.439941 L 129.08936,35.796875 C 128.15967,34.411133 126.4751,33.317383 126.34326,31.63916 L 126.75146,31.751465 C 128.38623,33.381347 130.65576,34.654785 132.86084,34.63916 C 131.35693,34.592285 139.06104,33.296875 138.57178,32.680664 C 139.45654,33.792969 141.97217,34.148437 143.82373,34.660156 C 144.64404,34.323242 145.01318,34.387695 145.61182,33.803222 C 145.32959,33.534179 144.90381,33.324219 144.49756,33.198242 C 142.07373,32.679687 136.36963,31.842285 135.03271,29.614258 C 134.85498,30.602539 135.82373,31.359375 136.90381,32.137695 L 134.65771,31.948242 C 130.64209,30.382812 130.95654,27.321777 131.6665,24.390625 L 132.09131,26.784179 L 132.9292,28.057617 C 134.25537,25.402344 133.50732,25.762695 130.38818,22.438476 L 132.646,23.147461 C 133.69873,23.887695 135.43311,25.171875 136.95654,26.046875 C 141.05811,28.373535 143.11084,29.950195 148.16553,30.03125 L 149.73682,30.286133 C 150.68896,27.418945 148.42041,24.936035 149.271,28.82959 C 148.39795,27.898437 147.54639,27.039062 147.68701,26.521972 C 147.37647,26.112304 148.80225,24.973633 148.65088,24.49707 C 147.12061,23.131347 140.79248,22.686035 137.20459,19.561035 C 137.13428,20.118652 138.88818,21.460937 139.20459,21.9375 C 135.81982,22.146972 133.771,21.237304 133.35303,20.186035 C 133.26904,20.011719 133.31982,19.213867 133.66748,18.939941 C 134.14307,18.665527 134.59912,18.262695 135.15869,18.182617 C 134.2417,17.52832 133.17725,18.524902 132.42041,18.989258 C 131.86865,20.034179 132.87061,21.114258 133.03271,21.932129 C 132.19678,21.771972 131.00732,20.412597 130.82373,19.529785 C 129.57568,19.729492 128.41553,19.631347 127.41357,18.975097 C 128.25537,18.748535 129.11865,18.39209 130.00146,18.188476 C 132.30811,17.570312 134.63525,15.104492 137.0874,16.808593 L 135.91943,15.506347 C 133.7085,15.395508 131.84912,16.490722 129.86475,17.09082 L 129.86475,17.09082 z"/>
      <path id="path13" d="M 122.2251,18.521973 C 121.63623,19.26709 121.04639,20.012695 120.95068,20.978027 L 121.09912,21.131348 C 121.4917,20.618652 122.09717,20.174805 122.65967,19.859375 C 122.71338,20.868652 123.43311,21.823242 124.35107,22.263184 L 124.50146,22.265625 C 124.25635,21.209473 124.31396,19.899902 124.69092,18.915527 C 125.34229,18.321777 126.22607,18.053223 126.771,17.436035 C 125.31201,17.182617 123.95459,17.532715 122.74561,18.054687 L 122.2251,18.521973 L 122.2251,18.521973 z"/>
      <path id="path15" style="fill:#ffffff" d="M 136.85693,20.731445 C 136.22217,19.963867 135.34717,19.367188 134.28271,19.51416 C 134.34521,20.499023 135.75342,21.001465 136.85693,20.731445 z"/>
      <path id="path17" d="M 128.31104,21.305664 C 127.38623,21.42334 126.5249,21.629883 125.66162,21.898438 C 126.06592,22.225098 126.56006,22.316406 126.94287,22.62207 C 125.81982,23.103027 124.63428,23.433594 123.67822,24.34668 L 123.89209,24.456055 C 125.72412,23.983398 127.91553,23.900879 129.86865,24.203125 L 129.97607,24.118652 L 128.75244,22.192383 L 130.45459,21.739258 C 129.49756,20.95459 128.40967,20.19043 127.18896,19.896973 C 127.39795,20.37207 127.9292,20.82959 128.31104,21.306152 L 128.31104,21.305664 L 128.31104,21.305664 z"/>
      <path id="path19" d="M 135.14014,22.943848 C 136.06201,23.061035 137.07275,23.029785 137.93506,22.825195 C 136.45947,22.185059 134.63037,22.421875 133.41943,21.225586 C 133.67041,21.873535 134.19482,22.911133 135.14014,22.943848 z"/>
      <path id="path21" d="M 121.73779,28.707031 C 122.15479,29.807617 121.021,31.234375 122.04053,32.212402 C 122.91162,33.103027 123.95654,33.825195 124.9585,34.459473 L 124.85498,34.114746 C 123.94287,33.179688 123.09522,32.13916 122.63623,30.995117 C 123.6626,31.286133 124.75342,31.707031 125.91357,31.806152 C 124.51709,29.984375 122.04443,28.301758 122.8042,25.668945 C 122.83057,25.239258 123.39307,24.880371 123.22607,24.491211 C 121.92432,25.571777 121.43506,27.092285 121.73779,28.707031 L 121.73779,28.707031 z"/>
      <path id="path23" style="fill:#ffffff" d="M 139.60107,29.237305 C 139.48584,29.461914 139.54834,29.77832 139.52295,30.04834 C 139.79639,29.893555 139.97998,29.57959 140.25342,29.446777 C 140.16357,29.289063 139.80322,29.307129 139.60107,29.237305 z"/>
      <path id="path25" style="fill:#ffffff" d="M 141.33154,30.822754 L 141.87842,30.242188 C 141.74561,30.149902 141.56787,30.013184 141.33936,30.078125 L 141.33154,30.822754 z"/>
      <path id="path27" style="fill:#ffffff" d="M 142.72119,31.345215 C 142.85693,31.347656 143.13525,30.713867 143.271,30.71582 L 142.80029,30.476563 C 142.64209,30.475098 142.76807,31.233398 142.72119,31.345215 z"/>
      <path id="path29" style="fill:#ffffff" d="M 144.13916,31.551758 L 144.01123,31.911133 C 144.32764,31.869629 144.4585,31.262695 144.64014,31.084473 C 144.10693,31.009277 144.07959,30.868164 144.13916,31.551758 z"/>
      <path id="path31" style="fill:#ffffff" d="M 145.68701,32.28418 L 146.20557,31.303223 L 145.67041,31.212402 L 145.68701,32.28418 z"/>
      <path id="path33" style="fill:#ffffff" d="M 147.13037,32.043945 L 147.75635,31.524414 C 147.0874,31.307617 147.04541,31.21582 147.13037,32.043945 z"/>
      <path id="path35" style="fill:#ffffff" d="M 148.68115,31.57666 C 148.7915,31.848633 148.72021,32.186035 148.71631,32.479004 C 148.85498,32.1875 149.19678,31.966309 149.22217,31.62793 C 149.06592,31.513184 148.86182,31.579102 148.68115,31.57666 L 148.68115,31.57666 z"/>
      <path id="path37" d="M 129.67041,43.213867 C 129.89795,43.584473 129.93213,44.04834 130.15967,44.418945 C 130.59717,43.359375 130.47607,42.120117 129.78857,41.223633 C 128.65381,40.804688 127.55615,40.365723 126.56006,39.658691 C 127.02686,40.959473 128.40381,42.348633 129.67041,43.213867 L 129.67041,43.213867 z"/>
      <path id="path71" d="M 135.34717,20.92334 C 134.97998,20.850586 134.74756,20.46582 134.82568,20.0625 C 134.90576,19.657715 135.26709,19.389648 135.63428,19.462402 C 136.00146,19.53418 136.23389,19.92041 136.15576,20.323242 C 136.07568,20.726562 135.71338,20.995117 135.34717,20.92334 z"/>
      <path id="path75" d="M 129.41318,45.877584 L 130.44482,44.966309 C 129.36279,44.35791 127.52762,43.261263 126.52273,42.429232 C 127.35574,43.916536 127.46772,45.604934 129.41318,45.877584 z"/>
      <path id="path85" style="fill:#ffffff" d="M 31.534668,219.2998 C 32.167969,220.06738 33.043945,220.66406 34.109375,220.5166 C 34.04541,219.53125 32.637695,219.03027 31.534668,219.2998 z"/>
      <path id="path93" style="fill:#ffffff" d="M 28.791016,210.79395 C 28.905762,210.56934 28.842285,210.25293 28.867188,209.9834 C 28.595703,210.1377 28.411133,210.45215 28.137695,210.58496 C 28.226563,210.74219 28.587891,210.72363 28.791016,210.79395 z"/>
      <path id="path95" style="fill:#ffffff" d="M 27.05957,209.20996 L 26.511719,209.78906 C 26.645508,209.88184 26.82373,210.01855 27.050781,209.95313 L 27.05957,209.20996 z"/>
      <path id="path97" style="fill:#ffffff" d="M 25.669922,208.68652 C 25.534668,208.68262 25.256348,209.31738 25.120606,209.31543 L 25.59082,209.55469 C 25.748535,209.55566 25.623047,208.79688 25.669922,208.68652 L 25.669922,208.68652 z"/>
      <path id="path99" style="fill:#ffffff" d="M 24.251953,208.47949 L 24.379883,208.12012 C 24.064453,208.16113 23.933106,208.76855 23.75,208.94629 C 24.284668,209.02246 24.312012,209.16309 24.251953,208.47949 z"/>
      <path id="path101" style="fill:#ffffff" d="M 22.705078,207.74707 L 22.186035,208.72754 L 22.720703,208.81934 L 22.705078,207.74707 L 22.705078,207.74707 z"/>
      <path id="path103" style="fill:#ffffff" d="M 21.260254,207.9873 L 20.634766,208.50781 C 21.303223,208.72363 21.345703,208.81543 21.260254,207.9873 z"/>
      <path id="path105" style="fill:#ffffff" d="M 19.709473,208.4541 C 19.599609,208.18262 19.671875,207.84473 19.674316,207.55176 C 19.536133,207.84375 19.194824,208.06543 19.168945,208.40332 C 19.325195,208.5166 19.529297,208.45215 19.709473,208.4541 L 19.709473,208.4541 z"/>
    </g>
  </g>
  <path id="path2225" style="fill:#000000;fill-opacity:1;fill-rule:evenodd;stroke:none;stroke-width:1px;stroke-linecap:butt;stroke-linejoin:miter;stroke-opacity:1;display:inline" d="M 238.28241,961.61945 C 380.15641,1147.9807 573.09869,1221.8833 808.28241,1201.6195 L 788.28241,1158.1195 C 579.10554,1165.8726 404.9726,1114.0091 286.28241,942.11945 L 238.28241,961.61945 z"/>
</svg>