<?xml version="1.0" encoding="UTF-8" standalone="no"?>
<!-- Created with Inkscape (http://www.inkscape.org/) -->
<svg xmlns:rdf="http://www.w3.org/1999/02/22-rdf-syntax-ns#" xmlns="http://www.w3.org/2000/svg" version="1.1" xmlns:cc="http://creativecommons.org/ns#" xmlns:dc="http://purl.org/dc/elements/1.1/" viewBox="0 0 185.4 196.8">

 <metadata>

  <rdf:RDF>

   <cc:Work rdf:about="">

    <dc:format>image/svg+xml</dc:format>

    <dc:type rdf:resource="http://purl.org/dc/dcmitype/StillImage"/>

    <dc:title/>

   </cc:Work>

  </rdf:RDF>

 </metadata>

 <g fill-rule="evenodd" transform="translate(-145.87752,-809.6129)">

  <path d="m268,813.6,29.63,0,0,5.854,11.89,0,0,6.209,6.209,0,0,17.92-23.95,0,0,5.5,12.06,0,0,5.676,5.678,0,0,5.678,6.209,0,0,18.45-6.209,0,0,6.209-5.678,0,0,5.678-41.87,0,0-5.678-6.21,0,0-6.209-5.676,0,0-18.45,17.56,0,0-4.968-11.89,0,0-5.676-5.676,0,0-24.13,5.676,0,0-6.209,11.89,0,0-5.854,0.355,0zm28.92,0.8862-28.56,0,0,5.678-11.89,0,0,6.208-5.676,0,0,22.71,5.676,0,0,5.676,11.89,0,0,5.678,17.74,0,0,6.386,5.678,0,0,6.209-18.27,0,0-5.499-5.855,0,0-6.386-16.85,0,0,17.03,5.676,0,0,6.032,6.209,0,0,5.854,40.27,0,0-5.854,5.854,0,0-6.032,6.209,0,0-17.03-6.209,0,0-5.678-5.854,0,0-5.676-11.89,0,0-6.21-17.56,0,0-12.06,18.27,0,0,11.35,23.24,0,0-16.5-6.209,0,0-6.208-11.89,0,0-5.678zm-5.854,28.38,0-10.64-16.85,0,0,10.64,16.85,0zm-22.71,18.27,0,5.676,5.854,0,0,5.5,16.85,0,0-4.79-5.678,0,0-6.386-17.03,0" fill="#918f90"/>

  <path d="m156.1,813.6,23.77,0,0,5.854,6.208,0,0,12.06,5.855,0,0,11.35,5.676,0,0,11.88,5.323,0,0-11.88,6.209,0,0-11.35,5.676,0,0-12.06,5.678,0,0-5.854,24.66,0,0,77.17-24.66,0,0-23.24-4.968,0,0,11.35-5.676,0,0,11.89-18.8,0,0-11.89-5.678,0,0-11.35-5.499,0,0,23.24-24.13,0,0-77.17,0.3545,0" fill="#8a8c8e"/>

  <path d="m191,926.1-11.18,0,0,40.63,17.03,0,0-11.35-5.854,0,0-29.27zm53.22,0-5.321,0,0,34.59,5.321,0,0-6.032,5.855,0,0-5.854,11.89,0,0-4.968-6.21,0,0-5.676-5.676,0,0-5.677-5.855,0,0-6.387zm52.69,29.27-10.82,0,0,5.323,10.82,0,0-5.323zm-146.5-71.14,59.43,0,0,5.854,4.967,0,0-5.854,41.69,0,0,5.854,5.5,0,0-5.854,41.87,0,0,5.854,11.89,0,0,5.676,5.678,0,0,6.566,5.854,0,0,18.09-5.854,0,0,5.676-17.56,0,0,5.501,11.89,0,0,5.854,5.678,0,0,5.676,5.854,0,0,41.69-5.854,0,0,5.854-5.678,0,0,5.854-11.89,0,0,5.854-36.19,0,0-5.854-4.968,0,0,5.854-42.22,0,0-5.854-10.64,0,0,5.854-59.96,0,0-118.1,0.5328,0zm152.6,41.16,0-4.967-6.032,0,0-6.387-5.144,0,0,11.35,11.18,0" fill="#8a8c8e"/>

  <path d="m285.8,954.6,11.89,0,0,6.742-12.24,0,0-6.742,0.355,0zm-76.64-69.54-58.37,0,0,116.4,58.37,0,0-5.678,12.24,0,0,5.678,40.62,0,0-5.678,6.386,0,0,5.678,34.59,0,0-5.678,12.06,0,0-6.031,5.678,0,0-5.677,5.676,0,0-40.27-5.676,0,0-5.676-5.678,0,0-5.677-12.06,0,0-6.387-11.89,0,0-12.77,6.564,0,0,6.208,6.209,0,0,5.854,16.85,0,0-5.854,5.676,0,0-16.5-5.676,0,0-6.562-5.678,0,0-5.678-12.06,0,0-5.678-40.27,0,0,5.678-6.919,0,0-5.678-40.27,0,0,5.678-6.386,0,0-5.678zm29.45,40.27,6.564,0,0,6.21,5.678,0,0,5.854,5.676,0,0,5.676,6.209,0,0,6.387-11.88,0,0,5.854-5.678,0,0,6.032-6.919,0,0-36.01,0.355,0zm-59.08,0,12.42,0,0,29.27,5.676,0,0,12.77-18.45,0,0-42.05,0.355,0" fill="#231f20"/>

  <path d="m297.3,908,6.031,0,0,5.676,12.06,0,0-5.676,5.678,0,0,11.89-17.74,0,0-6.211-6.031,0,0-5.676zm-46.83,53.04,5.676,0,0,11.71,6.21,0,0,6.033,11.53,0,0,5.676,29.45,0,0-5.676,5.855,0,0-6.033,6.209,0,0-5.676,5.678,0,0,17.38-5.678,0,0,5.855-12.06,0,0,5.854-35.3,0,0-5.854-5.676,0,0-5.855-6.21,0,0-5.676-5.676,0,0-17.74zm40.98-17.56,5.854,0,0,5.678,6.031,0,0,5.854-6.031,0,0-5.854-5.854,0,0-5.678zm-40.98-17.74,5.676,0,0,6.386,6.21,0,0,5.677-6.21,0,0-5.677-5.676,0,0-6.386" fill="#969227"/>

  <path d="m250.5,955,17.56,0,0,6.033,5.854,0,0,6.032,23.42,0,0-6.032,6.031,0,0-11.89-6.031,0,0-5.678-5.854,0,0-11.35,11.88,0,0,5.677,12.06,0,0,5.676,5.678,0,0,23.6-5.678,0,0,5.676-6.209,0,0,6.033-5.855,0,0,5.676-29.45,0,0-5.676-11.53,0,0-6.033-6.21,0,0-11.71-5.676,0,0-6.033zm11.89-58.9-6.21,0,0,6.564-5.676,0,0,23.06,5.676,0,0,6.386,6.21,0,0-18.45,5.676,0,0-5.676,35.3,0,0,5.676,12.06,0,0-5.676,5.678,0,0-5.322-5.678,0,0-6.564-12.06,0,0-5.676-40.98,0,0,5.676" fill="#f4ea18"/>

  <path d="m156.1,890.4,47.19,0,0,5.676-6.032,0,0,11.89-23.42,0,0,64.75,29.45,0,0-5.676,6.209,0,0-6.032,5.677,0,0-6.033,5.677,0,0-41.34,12.06,0,0,47.37-6.21,0,0,6.032-5.854,0,0,5.676-5.677,0,0,6.033-11.89,0,0,5.676-47.19,0,0-94.02" fill="#ed1d29"/>

  <path d="m173.8,908,23.42,0,0,5.676-5.676,0,0,6.211-17.74,0,0-11.89zm29.45-17.56,6.209,0,0,5.676-6.209,0,0,6.564-6.032,0,0-6.564,6.032,0,0-5.676" fill="#aa252d"/>

  <path d="m156.1,984.5,47.19,0,0-5.676,11.89,0,0,11.53-5.677,0,0,5.854-53.4,0,0-11.71" fill="#aa252d"/>

  <path d="m179.1,814.5-22.71,0,0,75.57,22.71,0,0-23.24,6.919,0,0,11.35,5.855,0,0,11.89,17.21,0,0-11.89,5.676,0,0-11.35,6.565,0,0,23.24,22.88,0,0-75.57-22.88,0,0,5.678-5.856,0,0,12.06-5.676,0,0,11.35-6.21,0,0,11.89-6.741,0,0-11.89-5.854,0,0-11.35-5.678,0,0-12.06-6.209,0,0-5.678" fill="#231f20"/>

  <path d="m161.9,819.8,11.89,0,0,6.209,5.676,0,0,11.35,6.209,0,0,12.06,5.855,0,0,11.35,5.676,0,0,11.89,6.032,0,0-17.56,6.209,0,0-11.88,5.677,0,0-11.35,5.677,0,0-12.06,12.06,0,0,64.75-6.21,0,0-41.33-5.854,0,0,11.88-5.677,0,0,12.06-5.677,0,0,11.35-6.209,0,0,6.031-6.032,0,0-6.031-5.676,0,0-11.35-5.855,0,0-12.06-6.209,0,0-11.88-5.676,0,0-5.855-5.678,0,0,47.19-6.208,0,0-64.75" fill="#d0cfce"/>

  <path d="m232.9,819.8,5.676,0,0,64.75-5.676,0,0-64.75zm-12.06,23.42,5.854,0,0,6.209-5.854,0,0-6.209zm-47.01-23.42,5.676,0,0,6.209-5.676,0,0-6.209zm5.676,12.06,6.209,0,0,5.499-6.209,0,0-5.499zm6.209,11.35,5.855,0,0,6.209-5.855,0,0-6.209zm5.855,11.88,5.676,0,0,5.678-5.676,0,0-5.678zm5.676,12.06,6.032,0,0,5.5-6.032,0,0-5.5zm-29.09-29.8,0,47.19,5.678,0,0-35.12,5.676,0,0-6.209-5.676,0,0-5.855-5.678,0" fill="#8a8c8e"/>

  <path d="m296.9,814.5-28.56,0,0,5.678-11.89,0,0,6.208-5.676,0,0,22.71,5.676,0,0,5.676,11.89,0,0,5.678,17.74,0,0,6.386,5.678,0,0,6.209-18.27,0,0-5.499-5.855,0,0-6.386-16.85,0,0,17.03,5.676,0,0,6.032,6.209,0,0,5.854,40.27,0,0-5.854,5.854,0,0-6.032,6.209,0,0-17.03-6.209,0,0-5.678-5.854,0,0-5.676-11.89,0,0-6.21-17.56,0,0-12.06,18.27,0,0,11.35,23.24,0,0-16.5-6.209,0,0-6.208-11.89,0,0-5.678" fill="#231f20"/>

  <path d="m256.1,826,11.89,0,0-6.209,23.42,0,0,6.209,11.88,0,0,11.35-6.031,0,0-5.499-5.854,0,0-5.855-23.42,0,0,5.855-5.676,0,0,17.56-6.21,0,0-23.42zm11.89,23.42,0,5.676,17.74,0,0,5.678,5.678,0,0,6.386,5.854,0,0,5.5-5.854,0,0,5.854-23.42,0,0-11.35-11.89,0,0,11.35,6.21,0,0,6.031,34.95,0,0-6.031,6.031,0,0-17.74-6.031,0,0-5.678-11.53,0,0-5.676-17.74,0" fill="#d0cfce"/>

  <path d="m268,826,5.854,0,0,5.855-5.854,0,0,11.35,5.854,0,0,6.209-11.53,0,0-17.56,5.676,0,0-5.855zm35.3,34.77,5.855,0,0,17.74-5.855,0,0,6.031-6.031,0,0-6.031,6.031,0,0-17.74-6.031,0,0-5.678,6.031,0,0,5.678zm-17.56-11.35,5.678,0,0,5.676-5.678,0,0-5.676zm17.56-23.42,5.855,0,0,11.35-5.855,0,0-11.35zm-11.88-6.209,5.854,0,0,6.209-5.854,0,0-6.209" fill="#8a8c8e"/>

  <path d="m238.6,908,6.209,0,0,5.676-6.209,0,0-5.676zm-17.74,76.46,5.854,0,0,5.855,6.21,0,0-5.855,5.676,0,0,5.855,11.89,0,0,5.854,5.676,0,0-5.854-5.676,0,0-5.855-5.678,0,0,11.71-6.209,0,0-5.854-5.676,0,0,5.854-6.21,0,0-5.854-5.854,0,0-5.855zm47.19-64.57,5.854,0,0,5.854-5.854,0,0-5.854zm0,23.59,5.854,0,0,5.678-5.854,0,0-5.678zm0-11.35,5.854,0,0,5.677-5.854,0,0-5.677zm-58.54,5.677,5.677,0,0,5.676-5.677,0,0-5.676zm0-12.06,5.677,0,0,6.386-5.677,0,0-6.386zm0-12.07,5.677,0,0-5.676,5.677,0,0,5.676-5.677,0,0,6.211-5.677,0,0-6.211" fill="#911a8f"/>

  <path d="m238.6,967.1,6.209,0,0,5.676-6.209,0,0,6.033,6.209,0,0,5.676-6.209,0,0-5.676-5.676,0,0,5.676-6.21,0,0-5.676,6.21,0,0-6.033,5.676,0,0-5.676zm-35.3-12.06,6.209,0,0,6.033-6.209,0,0-6.033-6.032,0,0-5.854,6.032,0,0-5.678-6.032,0,0-5.676,6.032,0,0-5.677-6.032,0,0-6.386,6.032,0,0-5.854-6.032,0,0-6.211,6.032,0,0-5.676,6.209,0,0-5.322,5.677,0,0-6.564,5.677,0,0-5.676,5.854,0,0,5.676,6.21,0,0-5.676,5.676,0,0,5.676,6.209,0,0-5.676,5.678,0,0,5.676-5.678,0,0,6.564-6.209,0,0,5.322-5.676,0,0-5.322-6.21,0,0,5.322-5.854,0,0-5.322-5.677,0,0,5.322-5.677,0,0,5.676-6.209,0,0,6.21,6.209,0,0,5.854-6.209,0,0,6.386,6.209,0,0,5.677-6.209,0,0,5.676,6.209,0,0,5.678-6.209,0,0,5.854zm35.3-52.33,0-6.564-5.676,0,0,6.564,5.676,0zm-11.89,0,0-6.564-5.854,0,0,6.564,5.854,0zm47.19,11,5.679,0,0,6.211,6.208,0,0,5.854-6.208,0,0,6.386,6.208,0,0,5.677-6.208,0,0,5.676,6.208,0,0,5.678-6.208,0,0,5.854-5.679,0,0-5.854,5.679,0,0-5.678-5.679,0,0-5.676,5.679,0,0-5.677-5.679,0,0-6.386,5.679,0,0-5.854-5.679,0,0-6.211" fill="#b5118c"/>

  <path d="m273.9,955,5.679,0,0-5.854-5.679,0,0-5.678,5.679,0,0-5.676-5.679,0,0-5.677,5.679,0,0-6.386-5.679,0,0-5.854,5.679,0,0-6.211,6.208,0,0,6.211-6.208,0,0,5.854,6.208,0,0,6.386-6.208,0,0,5.677,6.208,0,0,5.676-6.208,0,0,5.678,6.208,0,0,5.854-6.208,0,0,6.033-5.679,0,0-6.033zm-64.4,0-6.209,0,0-5.854-6.032,0,0-5.678,6.032,0,0-5.676-6.032,0,0-5.677,6.032,0,0-6.386-6.032,0,0-5.854,6.032,0,0-6.211,6.209,0,0-5.676-6.209,0,0-5.322,6.209,0,0-6.564,5.677,0,0-5.676,5.677,0,0,5.676,5.854,0,0-5.676,6.21,0,0,5.676,5.676,0,0-5.676,6.209,0,0,5.676-6.209,0,0,6.564,6.209,0,0,5.322-6.209,0,0-5.322-5.676,0,0,5.322-6.21,0,0-5.322-5.854,0,0,5.322-5.677,0,0,5.676-5.677,0,0,6.21-6.209,0,0,5.854,6.209,0,0,6.386-6.209,0,0,5.677,6.209,0,0,5.676-6.209,0,0,5.678,6.209,0,0,5.854zm23.42-58.9-6.21,0,0,6.564,6.21,0,0-6.564zm-12.06,0-5.677,0,0,6.564,5.677,0,0-6.564zm-5.677,6.564-5.677,0,0,5.322,5.677,0,0-5.322zm5.677,76.11,5.854,0,0-6.033,6.21,0,0-5.676,5.676,0,0,5.676,6.209,0,0,6.033,5.678,0,0,5.676-5.678,0,0-5.676-6.209,0,0,5.676-5.676,0,0-5.676-6.21,0,0,5.676-5.854,0,0-5.676zm17.74-6.033-5.676,0,0,6.033,5.676,0,0-6.033" fill="#2e3596"/>

  <path d="m220.8,990.3,5.854,0,0-5.855,6.21,0,0,5.855,5.676,0,0-5.855,6.209,0,0,5.855,5.678,0,0-5.855,5.676,0,0,5.855,6.21,0,0,5.854-6.21,0,0-5.854-5.676,0,0,5.854-5.678,0,0-5.854-6.209,0,0,5.854-5.676,0,0-5.854-6.21,0,0,5.854-5.854,0,0-5.854zm-11.35-46.83,5.677,0,0,5.678-5.677,0,0-5.678zm29.09-29.8,6.209,0,0,6.211-6.209,0,0-6.211zm6.209-17.56,5.678,0,0-5.676,5.676,0,0,5.676-5.676,0,0,6.564-5.678,0,0-6.564zm-35.3,23.77,5.677,0,0,5.854-5.677,0,0-5.854zm0,12.24,5.677,0,0,5.677-5.677,0,0-5.677zm58.54-18.45,5.854,0,0,6.211-5.854,0,0-6.211zm0,35.48,5.854,0,0,5.854-5.854,0,0-5.854zm0-11.35,5.854,0,0,5.676-5.854,0,0-5.676zm0-12.06,5.854,0,0,6.386-5.854,0,0-6.386" fill="#2e3190"/>

 </g>

</svg>