<?xml version="1.0" encoding="windows-1252"?>
<!-- Generator: Adobe Illustrator 13.0.0, SVG Export Plug-In . SVG Version: 6.00 Build 14948)  -->
<!DOCTYPE svg PUBLIC "-//W3C//DTD SVG 1.1//EN" "http://www.w3.org/Graphics/SVG/1.1/DTD/svg11.dtd">
<svg version="1.1" id="Layer_1" xmlns="http://www.w3.org/2000/svg" xmlns:xlink="http://www.w3.org/1999/xlink" x="0px" y="0px" width="295.5px" height="127.973px" viewBox="0 0 295.5 127.973" style="enable-background:new 0 0 295.5 127.973;" xml:space="preserve">
<g>
	<g>
		<path style="fill:#5D87A1;" d="M128.625,32.565c-0.37,18.682,20.634,27.478,20.26,43.826c0,4.529-3.413,16.254-15.373,16.018    c-5.993-0.138-11.719-4.167-11.609-14.551v-7.32c-0.111-0.592-0.111-1.337-0.61-1.946c-0.359-0.371-1.104-0.62-1.701-0.371    c-1.102,0.603-1.35,1.819-1.836,2.806c-0.62,3.172-1.338,6.474-1.956,9.646c-0.111,0.25,0.248,0.25,0,0.25    c-0.488,2.324-0.858,4.749-0.969,7.087c-0.138,1.461,0.858,2.677,2.073,3.424c4.512,2.435,10.245,4.143,16.608,4.252    c15.493,0.25,28.203-13.299,28.434-26.483c0.128-10.62-5.855-16.728-12.438-24.664c-3.304-4.153-9.908-9.886-9.66-17.467    c0-6.104,5.017-12.937,14.176-12.814c12.344,0.247,10.365,13.311,10.618,19.288c0,0.611,0,1.218,0.484,1.467    c0.493,0.481,1.24,0.607,1.838,0.37c0.369-0.37,0.605-0.618,0.728-0.978l3.054-11.473c0.48-2.073,1.463-4.158,1.463-6.602    c0-0.607-0.484-1.228-1.093-1.713c-6.472-3.414-10.383-3.893-16.358-4.021C139.6,10.345,128.736,21.088,128.625,32.565     M165.525,55.279c0,0.608,0.48,1.217,1.228,1.217c1.577,0,2.433-3.175,6.342-8.423c2.195-3.299,4.998-5.853,6.474-5.853    c1.079,0,1.202,0.839,1.202,1.585c0,3.661-13.906,32.965-13.906,44.437c0,3.549,1.466,6.961,5.981,6.961    c10.742,0,22.342-13.547,30.651-25.755c0.359-0.375,0.607-0.375,0.486,0.232c-1.715,5.016-4.157,14.53-4.157,20.396    c0,2.433,0.497,5.375,4.4,5.375c9.516,0,21.851-18.682,21.851-23.08c0-0.729-0.236-1.457-1.094-1.457    c-1.46,0-1.957,2.444-3.55,5.118c-2.926,4.639-7.69,10.743-9.996,10.743c-0.869,0-0.869-0.967-0.869-1.695    c0-6.246,14.901-46.899,14.901-48.124c0-0.97-0.127-1.577-1.587-1.577c-0.968,0-2.56-0.139-4.756-0.139    c-4.04,0-4.277,0.625-4.65,1.356c-1.946,3.787-4.874,15.875-10.741,26.483c-7.928,13.809-18.688,24.681-23.197,24.681    c-1.588,0-2.574-1.219-2.574-3.069c0-6.103,14.78-37.722,14.78-45.414c0-1.824-0.969-5.485-5.376-5.485    C175.537,33.793,165.525,53.083,165.525,55.279 M277.263,33.902c-11.83,0-24.418,18.823-28.678,25.163    c-0.25,0.607-0.377,0.359-0.25-0.126c2.068-7.581,4.51-14.265,4.51-19.292c0-3.05-1.457-6.104-5.366-6.104    c-8.298,0-20.385,16.366-20.385,20.397c0,0.839,0.238,1.465,0.856,1.465c1.454,0,2.683-2.802,4.878-5.746    c2.803-3.412,6.224-7.817,8.298-7.817c0.359,0,0.73,0.237,0.73,1.465c0,5.127-10.493,34.07-14.884,48.483    c-0.5,1.588,0.48,1.964,5.118,1.964c3.304,0,4.88,0.479,5.502-2.073c2.675-9.667,7.691-20.408,13.185-29.813    c5.002-8.784,15.742-21.484,21.735-21.484c1.34,0,2.195,0.977,2.195,3.063c0,6.087-15.628,35.279-15.13,46.383    c0.109,3.177,1.208,5.513,5.244,5.513c9.279,0,17.439-12.957,21.238-19.79c0.608-1.107,1.588-2.322,0.728-3.677    c-0.231-0.48-0.728-0.713-1.338-0.713c-0.371,0-0.729,0.345-0.978,0.713c-2.554,4.517-8.178,14.419-11.96,14.667    c-0.733,0-1.087-0.733-1.087-1.356c0-4.404,13.653-32.833,13.653-42.486C285.079,36.228,281.545,33.902,277.263,33.902"/>
		<path style="fill:#5D87A1;" d="M19.388,60.402c-3.524,3.534-9.222,3.534-12.746,0c-3.524-3.52-3.524-9.222,0-12.73l20.86-20.866    l5.577,5.577L12.082,53.386l1.571,1.587l21.002-21.014l5.597,5.593L19.388,60.402"/>
	</g>
	<path style="fill:#5D87A1;" d="M35.626,47.449c3.53-3.523,9.222-3.523,12.743,0c3.512,3.509,3.523,9.211,0,12.735L27.503,81.048   l-5.579-5.579l21.02-21.003l-1.593-1.588L20.354,73.893l-5.596-5.588L35.626,47.449"/>
	<path style="fill:#5D87A1;" d="M62.676,90.74c3.523,3.51,3.523,9.211,0,12.714c-3.52,3.524-9.227,3.524-12.747,0l-20.85-20.859   l5.577-5.566l21.007,21.003l1.584-1.577L36.233,75.443l5.577-5.578L62.676,90.74"/>
	<path style="fill:#5D87A1;" d="M49.707,74.492c-3.518-3.524-3.518-9.239,0-12.736c3.521-3.539,9.227-3.539,12.75,0l20.865,20.849   l-5.585,5.579L56.723,67.182l-1.576,1.575L76.15,89.762l-5.578,5.58L49.707,74.492"/>
	<path style="fill:#5D87A1;" d="M76.761,60.402c-3.507,3.507-9.211,3.507-12.734,0c-3.515-3.52-3.515-9.222,0-12.742l20.865-20.865   l5.58,5.578L69.465,53.386l1.577,1.577L92.045,33.96l5.592,5.576L76.761,60.402"/>
	<path style="fill:#5D87A1;" d="M93.015,47.438c3.52-3.523,9.223-3.523,12.732,0c3.517,3.505,3.533,9.223,0,12.746L84.891,81.031   l-5.588-5.579l21.014-21.013l-1.574-1.561L77.737,73.865l-5.588-5.561L93.015,47.438"/>
	<g>
		<path style="fill:#5D87A1;" d="M62.676,33.35c3.523,3.523,3.523,9.21,0,12.75c-3.52,3.507-9.227,3.507-12.747,0l-20.85-20.865    l5.577-5.593l21.007,21.013l1.584-1.573L36.233,18.08l5.577-5.591L62.676,33.35"/>
		<path style="fill:#5D87A1;" d="M49.707,17.113c-3.518-3.523-3.518-9.221,0-12.745c3.521-3.507,9.227-3.523,12.75,0l20.865,20.865    l-5.585,5.579L56.723,9.797l-1.576,1.588L76.15,32.399l-5.578,5.56L49.707,17.113"/>
	</g>
	<path style="fill:#5D87A1;" d="M136.084,119.794v-8.124c0-1.753-0.432-2.866-2.13-2.866c-1.852,0-3.631,1.907-3.631,4.96v6.03   h-2.345v-8.133c0-1.575-0.332-2.857-2.118-2.857c-1.985,0-3.645,2.054-3.645,4.96v6.03h-2.359v-12.65h2.278   c0,0.749-0.041,1.893-0.206,2.655l0.055,0.026c0.758-1.78,2.446-2.939,4.53-2.939c2.746,0,3.493,1.862,3.588,2.886   c0.554-1.189,1.947-2.886,4.463-2.886c2.454,0,3.862,1.309,3.862,4.155v8.753H136.084"/>
	<path style="fill:#5D87A1;" d="M156.248,119.97c-3.124,0-5.718-1.422-5.718-6.068c0-4.076,2.15-6.95,6.503-6.95   c1.021,0,2.044,0.152,2.951,0.414l-0.242,2c-0.83-0.303-1.796-0.534-2.817-0.534c-2.612,0-3.894,1.88-3.894,4.749   c0,2.488,0.822,4.435,3.71,4.435c1.095,0,2.257-0.251,3.096-0.69l0.176,1.984C159.161,119.639,157.764,119.97,156.248,119.97"/>
	<path style="fill:#5D87A1;" d="M169.997,109.162c-2.758-0.458-4.058,1.505-4.058,5.553v5.079h-2.362v-12.65h2.278   c0,0.785-0.084,1.963-0.291,3.013h0.055c0.552-1.768,1.897-3.52,4.489-3.245L169.997,109.162"/>
	<path style="fill:#5D87A1;" d="M177.993,120.026c-3.533,0-5.827-2-5.827-6.445c0-3.699,2.404-6.669,6.342-6.669   c3.329,0,5.865,1.794,5.865,6.352C184.373,117.073,181.846,120.026,177.993,120.026 M178.297,108.831   c-1.891,0-3.673,1.393-3.673,4.525c0,3.056,1.282,4.724,3.673,4.724c1.945,0,3.603-1.467,3.603-4.695   C181.901,110.516,180.713,108.831,178.297,108.831"/>
	<path style="fill:#5D87A1;" d="M190.477,120.026c-0.966,0-1.946-0.066-2.748-0.231l0.067-2.03c0.818,0.251,1.851,0.416,2.858,0.416   c1.731,0,2.913-0.748,2.913-1.92c0-2.829-6.061-1.093-6.061-5.549c0-2.129,1.81-3.8,5.218-3.8c0.787,0,1.699,0.121,2.49,0.261   l-0.054,1.908c-0.802-0.248-1.744-0.415-2.612-0.415c-1.74,0-2.599,0.73-2.599,1.824c0,2.774,6.076,1.267,6.076,5.507   C196.027,118.301,193.927,120.026,190.477,120.026"/>
	<path style="fill:#5D87A1;" d="M204.52,121.066c-1.503,3.92-2.736,5.174-5.622,5.174c-0.49,0-1.171-0.067-1.709-0.148l0.205-2.045   c0.554,0.164,1.077,0.248,1.699,0.248c1.436,0,2.184-0.638,3.106-3.091l0.553-1.41l-4.928-12.65h2.677l2.459,6.558   c0.417,1.15,0.702,2.146,0.995,3.133h0.056c0.231-0.876,0.784-2.479,1.284-3.872l2.095-5.817h2.57L204.52,121.066"/>
	<path style="fill:#5D87A1;" d="M214.793,120.026c-0.967,0-1.937-0.066-2.749-0.231l0.085-2.03c0.802,0.251,1.862,0.416,2.857,0.416   c1.726,0,2.901-0.748,2.901-1.92c0-2.829-6.05-1.093-6.05-5.549c0-2.129,1.809-3.8,5.207-3.8c0.787,0,1.693,0.121,2.494,0.261   l-0.063,1.908c-0.804-0.248-1.742-0.415-2.611-0.415c-1.725,0-2.6,0.73-2.6,1.824c0,2.774,6.076,1.267,6.076,5.507   C220.342,118.301,218.248,120.026,214.793,120.026"/>
	<path style="fill:#5D87A1;" d="M228.218,119.999c-2.684,0-3.485-1.071-3.485-3.792v-7.281h-2.675v-1.781h2.675v-4.084l2.362-0.637   v4.722h3.632v1.781h-3.632v6.463c0,2.086,0.386,2.64,1.851,2.64c0.609,0,1.273-0.096,1.781-0.224v1.934   C229.996,119.888,229.058,119.999,228.218,119.999"/>
	<path style="fill:#5D87A1;" d="M244.314,113.331h-8.519c-0.112,3.384,1.339,4.832,4.114,4.832c1.34,0,2.749-0.305,3.799-0.802   l0.204,1.88c-1.254,0.497-2.775,0.785-4.4,0.785c-3.992,0-6.147-2.029-6.147-6.483c0-3.799,2.118-6.631,5.817-6.631   c3.66,0,5.202,2.416,5.202,5.33C244.384,112.544,244.356,112.889,244.314,113.331 M239.07,108.593   c-1.698,0-2.912,1.262-3.164,3.106h6.077C242.021,109.855,240.907,108.593,239.07,108.593"/>
	<path style="fill:#5D87A1;" d="M264.104,119.794v-8.124c0-1.753-0.413-2.866-2.111-2.866c-1.862,0-3.65,1.907-3.65,4.96v6.03   h-2.332v-8.133c0-1.575-0.344-2.857-2.125-2.857c-1.99,0-3.631,2.054-3.631,4.96v6.03h-2.361v-12.65h2.28   c0,0.749-0.057,1.893-0.213,2.655l0.047,0.026c0.755-1.78,2.442-2.939,4.542-2.939c2.75,0,3.479,1.862,3.589,2.886   c0.554-1.189,1.936-2.886,4.447-2.886c2.459,0,3.88,1.309,3.88,4.155v8.753H264.104"/>
	<path style="fill:#5D87A1;" d="M272.939,120.026c-0.969,0-1.93-0.066-2.73-0.231l0.065-2.03c0.802,0.251,1.864,0.416,2.858,0.416   c1.713,0,2.903-0.748,2.903-1.92c0-2.829-6.051-1.093-6.051-5.549c0-2.129,1.809-3.8,5.22-3.8c0.772,0,1.696,0.121,2.487,0.261   l-0.055,1.908c-0.818-0.248-1.76-0.415-2.626-0.415c-1.726,0-2.6,0.73-2.6,1.824c0,2.774,6.076,1.267,6.076,5.507   C278.49,118.301,276.406,120.026,272.939,120.026"/>
	<path style="fill:#5D87A1;" d="M145.059,105.075c0.867,0,1.574-0.706,1.574-1.509c0-0.839-0.708-1.486-1.574-1.486   c-0.859,0-1.561,0.673-1.561,1.486C143.497,104.414,144.2,105.075,145.059,105.075"/>
	<polygon style="fill:#5D87A1;" points="141.978,107.115 141.978,108.912 143.883,108.912 143.883,119.794 146.246,119.794    146.246,107.144  "/>
	<path style="fill:#5D87A1;" d="M291.5,89.442c0,2.47-1.909,4.378-4.379,4.378c-2.484,0-4.389-1.908-4.389-4.378   c0-2.484,1.904-4.393,4.389-4.393C289.591,85.05,291.5,86.958,291.5,89.442 M283.407,89.442c0,2.085,1.592,3.759,3.714,3.759   c2.111,0,3.704-1.675,3.704-3.759c0-2.098-1.593-3.772-3.704-3.772C284.999,85.669,283.407,87.344,283.407,89.442 M286.142,91.986   h-0.618v-5.101h1.946c1.144,0,1.651,0.518,1.651,1.424c0,0.901-0.59,1.287-1.267,1.408l1.504,2.269h-0.734l-1.42-2.269h-1.063   L286.142,91.986L286.142,91.986z M286.974,89.192c0.771,0,1.521-0.026,1.521-0.883c0-0.702-0.582-0.87-1.189-0.87h-1.162v1.753   H286.974"/>
</g>
</svg>